<?xml version="1.0" encoding="utf-8"?>
<!-- Generator: Adobe Illustrator 26.3.1, SVG Export Plug-In . SVG Version: 6.00 Build 0)  -->
<svg version="1.1" id="Layer_1" xmlns="http://www.w3.org/2000/svg" xmlns:xlink="http://www.w3.org/1999/xlink" x="0px" y="0px"
	 viewBox="0 0 299.4 153.6" style="enable-background:new 0 0 299.4 153.6;" xml:space="preserve">
<style type="text/css">
	.st0{fill:#FFFFFF;}
</style>
<path class="st0" d="M199.4,141.5c-1-0.6-1.8-1.5-2.4-2.8l-28.1-62.9c-1.1-2.5-2.1-4.5-2.9-6.2c-1.1-2.3-1.2-3.1-1.2-3.5
	c0-1.1,0.5-2,1.4-2.5v-2.2h-23.1v2.3c0.4,0.3,0.7,0.6,0.9,0.9c0.3,0.4,0.5,0.9,0.5,1.6c0,0.6-0.3,1.6-1,2.9c-0.6,1.3-1.4,3-2.3,5.1
	l-27.6,62.6c-0.4,1-1.1,2.2-2.1,3.8s-2.5,2.4-4.5,2.5v2.1h26.5v-2c-2.9-0.1-4.4-1.1-4.4-3c0-0.9,0.6-2.5,1.7-4.8
	c0.9-1.9,2-4.1,3.1-6.5c13.1,5.2,27.9,5.3,41.1,0.5c1.1,2.3,2,4.3,2.8,5.9c0.9,1.9,1.4,3.4,1.4,4.7c0,1.2-0.4,2.1-1.2,2.5
	c-0.6,0.3-1.2,0.5-1.9,0.6v2.1h27.1V143C201.6,142.5,200.3,142,199.4,141.5z M139.6,116.2l14.7-32.8l15.1,33.4
	C159.9,120,149.3,119.9,139.6,116.2z"/>
<path class="st0" d="M102.7,80.8c0-4.9,0.7-9.5,1.9-14l-14.9-6.7c-2.1,6.6-3.1,13.3-3.2,20c-0.1,18.7,7.7,36.8,21.3,49.7l1-1.9
	l6.1-13.7C107.3,105.2,102.7,93.5,102.7,80.8z"/>
<path class="st0" d="M220.8,60.2l-14.9,6.7c1.2,4.4,1.9,9.1,1.9,13.9c0,12.8-4.6,24.5-12.2,33.6l6.1,13.7l1,1.8
	c13.6-12.9,21.4-31,21.3-49.7C223.9,73.4,222.8,66.8,220.8,60.2z"/>
<path class="st0" d="M92.9,51.9l14.8,6.6c7.8-16.6,24-28.4,43.1-30V12C125.8,13.5,103.2,29.1,92.9,51.9z"/>
<path class="st0" d="M217.6,52c-10.4-22.8-33-38.4-58-40v16.5c19.2,1.6,35.4,13.4,43.1,30.1L217.6,52z"/>
</svg>
