<svg xmlns="http://www.w3.org/2000/svg" xml:space="preserve" id="Layer_1" x="0" y="0" version="1.1" viewBox="0 0 512 512"><style>.st1{fill:#fff}.st5{fill:#494949}</style><path d="M452.9 93.2c-4.2-5.2-8.6-10.2-13.3-15.1C391.7 27.7 326.5 0 256 0 187.9 0 123.9 26.5 75.8 74.7 69.9 80.6 64.3 86.8 59 93.2c-37.5 45.5-57.8 102-57.8 161.7C1.1 323 27.6 387 75.8 435.1c48.1 48.1 112.2 74.7 180.2 74.7 68.1 0 132.1-26.5 180.2-74.7 48.1-48.1 74.7-112.2 74.7-180.2 0-58.2-20.9-116.1-58-161.7" style="fill:#196aff"/><path d="M334.9 322.8c9.5-27.8 25.1-36.3 27.1-79.2.7-15.1-3.9-62.9-3.9-62.9s7.4-19.2-6.9-40.6c-22.2-33.2-67.8-35.4-91.8-35.4s-69.1 2.3-91.3 35.4c-14.3 21.4-6.9 40.6-6.9 40.6s-2.5 24.6-4.4 46.3c-.5 5.1 0 25.3.7 30.1 1.1 8.7 3.8 17.3 6.9 25.6 3.8 10.6 9.8 21.3 14.3 32.1 13.8 32.7 2.2 73.3 2.9 108.6.6 25.1-5.3 50.5-7.6 75 26.1 8.9 53.7 13.5 82 13.5 31.8 0 62.7-5.8 91.6-17-5.4-30.7-11.7-59.8-12.7-70.9-2.8-33.4-11-69 0-101.2" class="st1"/><path d="M159.4 127.3c.3 5 .8 10.1 2.2 14.9.4 1.5 1.1 5.2 3 5.8 2.4.7 6.9-2.2 8.6-3.4 3.3-2.4 6.4-4.9 9.6-7.3 2.1-1.6 4.4-2.8 6.4-4.4 2.2-1.7 3.9-3.8 5.8-5.9 2.3-2.5 3.9-5.1 5.7-7.8 1.4-2.2 9.8-3.6 11.2-5.6 1.5-2.2.2-4.9.2-7.6 0-19.7 1.2-39.2 1.6-58.5.5-13.2 5.7-29-14.2-22.8-42.4 13.2-42 71.9-40.1 102.6m187.5 27.6c-.4-.5-1.1-.9-1.7-1.3-2.4-1.8-4.6-3.6-6.7-5.7-2.5-2.6-5.1-5-7.5-7.7-2.1-2.3-4.6-4.4-6.6-6.8-1.4-1.6-2.7-3.2-3.9-4.9-.6-.8-.9-1.9-1.4-2.8-.7-1.3-10.6-2.7-9.6-4 1.7-2.2 5.4-4.1 6.3-6.6 4.6-12.9 6.6-64.9 7.1-78.2 1.4-33.9 31.2 1.7 36.4 15.3 15.1 39.7 6.1 68.7-12.3 102.7" class="st1"/><path d="M306.4 285.5c0-19.6-2.5-27.5-13.4-37.1-6.8-6-14.8-8.3-27.5-8-12.7-.3-21.9 3.6-28.5 10.4-10 10.4-12.6 16.5-12.6 36.1 0 10.6 11.4 34 14.8 39.4 5.6 9.5 16.1 13 26.3 12.3 10.2.7 20.7-2.7 26.3-12.3 3.4-5.3 14.6-28.3 14.6-40.8" style="fill:#f1e6d3"/><path d="M176.3 145.3c-2.6-22.9-10.2-63.7 16.3-88 2.9-2.7 3.7 6.4 4.2 10.1.7 5.1 0 19.5.1 24.6.2 9.6 2.2 14.6 1.3 19-2.6 12-4.6 11.2-7.1 18.5-4.8 14.4-14.1 22-14.8 15.8m166-4.5c2.7 4.9 9.8-21.3 12-32.7 2.1-10.7 4.8-24.9 1.1-35.6-2-5.7-14.1-22.5-15.5-16.7-.6 2.2-.8 18.9-2.2 26.8-1.7 9.9-4.8 19.6-4.8 29.6 0 22.5 6.8 23.5 9.4 28.6" style="fill:#f1d7d4"/><path d="M254.8 409.8c-.6 1.7-4.9 3-6.6 3.6-4 1.3-7.5-1.8-9.7-4.5-3.1-3.6-3-9.5-4.3-13.7-.8-2.6-5.2-2.9-6.5-.5-4.4 7.9-21.5-7-17.6-12 2.6-3.3-3.7-6.2-6.3-2.9-7.7 9.6 13 27.5 24.8 22.6.5 2.4 1.1 4.8 2.1 7.1 2 4.5 6.4 7.4 10.9 9.8 6.2 3.3 18.1-2.5 20-8 1.4-3.9-5.5-5.3-6.8-1.5m54.6-58c.6 2.7.7 11.7-4.2 6.8-2-2-6-.8-6.2 1.9-.4 6.2-6.6 6.3-12 4.5-4.3-1.5-6.5 4.4-2.3 5.9 7.9 2.8 16.5 1.2 19.9-4.7 2.7 1.3 5.7 1.6 8.1-.7 4.2-4 4.9-9.6 3.6-14.8-.9-4-7.9-2.8-6.9 1.1M322 481.7c-1.9 3.8-5.3 3.6-8.9 2-2.7-1.2-6 .8-5.2 3.5 1.6 5.4-5.3 7-9.9 5.1-4.1-1.7-7.7 3.7-3.5 5.4 8.4 3.5 19 .4 20.6-6.9 5.4.9 10.5-.7 13.1-5.9 1.7-3.8-4.4-6.9-6.2-3.2m-54.5-293.2c-.9 5.4-10.9-.9-13.4-2.6-2.2-1.5-5-.6-5.3 1.9-.4 3.4-4.9 2.4-7 2-3.9-.8-7.3-3.3-7.4-6.9s2.2-7.3 3.4-10.7c.8-2.1-2.3-4.5-4.6-3.1-4 2.6-23.6 4.9-15.8-3.6 2.5-2.7-1.9-6.6-4.4-3.8-3.6 3.9-6 12.9 1.7 14.8 4.1 1 10 1 15.1-.2-2.1 6.8-2.6 13 6.1 17.3 5.9 2.9 14 2.9 17.4-1.6 7.2 3.9 18.5 7.6 20.1-2.1.6-3.4-5.4-4.9-5.9-1.4" style="fill:#faeee0"/><path d="M233.8 312.7c10.5.9 20.9 3.3 31.5 2.9 6.7-.2 13.7-1.2 20.4-2.2 4.8-.7 10.8-1.6 14-5.1.3 12-24.6 15.7-34.2 15.9-11.3.3-23.8-4.6-31.7-11.5" class="st5"/><path d="M262.1 287.8c-1.2 7.7-1.4 15.4-.7 23.2.2 2-.3 6.8 2.3 7.8 2.2.8 4.9-.7 5.2-2.7.6-3.3-.8-7.5-.9-10.9-.1-4 0-7.9.4-11.9.3-2.3 1.6-5.5-1.1-7.1-2-1.2-4.9-.8-5.2 1.6" class="st5"/><path d="M282.4 269.1c-6.3.3-12.1 3.8-16.8 7.2-4.3-2.8-10.7-5.4-16.1-3.9-3.2.9-.3 1.9 1 2.7 2.5 1.6 4.5 3.8 6.3 5.9 2.8 3.3 5.2 6.9 8.2 10.1 2-1.5 4-2.9 5.8-4.7.8-.8 7.5-9.8 8.6-11.3.7-1 1.3-2 2.1-2.9.6-.9 2.8-2.3.9-3.1" class="st5"/><path d="M202.9 226.6c3.1-8 6.4-18.2 14.9-16.5 6.4 1.4 15.1 22.9 9.5 20.7-3-1.1-5.4-10.9-11-12.2-3.6-.8-8.5 11.6-13.3 12.8-2.2.6-1-2.8-.1-4.8m91.3 0c3.1-8 6.4-18.2 14.9-16.5 6.4 1.4 15.1 22.9 9.5 20.7-3-1.1-5.4-10.9-11-12.2-3.6-.8-8.5 11.6-13.3 12.8-2.1.6-1-2.8-.1-4.8" style="fill:#2c3844"/></svg>