<svg version="1.1" id="Layer_1" xmlns="http://www.w3.org/2000/svg" xmlns:xlink="http://www.w3.org/1999/xlink" x="0px" y="0px"
	 width="100%" viewBox="0 0 200 200" enable-background="new 0 0 200 200" xml:space="preserve">
<path fill="#F9F5F2" opacity="1.000000" stroke="none" 
	d="
M93.000000,0.999999 
	C100.354256,1.000000 107.708504,1.000000 115.238083,1.309227 
	C116.065346,2.068731 116.657845,2.679669 117.377831,2.946004 
	C140.890915,11.643963 164.403717,20.343143 187.951263,28.947100 
	C192.224014,30.508314 196.646591,31.659515 201.000000,33.000000 
	C201.000000,33.750000 201.000000,34.500000 200.650940,35.305367 
	C199.402588,36.729275 198.033844,37.997269 197.714142,39.489948 
	C197.235703,41.723728 197.561157,44.119244 197.429779,46.439457 
	C196.306732,66.273911 195.222122,86.110878 193.994949,105.938988 
	C193.108322,120.264893 192.074371,134.582596 190.936676,148.890488 
	C190.832443,150.201447 189.803741,151.964020 188.685059,152.592255 
	C161.971786,167.594086 135.176453,182.449692 108.447517,197.423828 
	C107.064568,198.198578 106.138687,199.789215 105.000000,201.000000 
	C97.979050,201.000000 90.958107,201.000000 83.726974,200.704468 
	C75.245377,193.614792 67.042702,186.734818 58.687302,180.045593 
	C44.187042,168.436859 29.574396,156.968475 15.076713,145.356567 
	C14.089147,144.565552 13.206333,143.125427 13.053698,141.890884 
	C11.599736,130.131088 10.297135,118.352379 8.984090,106.575424 
	C6.968853,88.500389 5.002655,70.419777 2.907418,52.354084 
	C2.809178,51.507042 1.659828,50.781910 1.000000,50.000000 
	C1.000000,43.312355 1.000000,36.624710 1.368222,29.454624 
	C3.906508,28.828428 6.191929,29.076336 8.227732,28.476730 
	C20.530672,24.853157 32.760876,20.983625 45.045479,17.296545 
	C60.029156,12.799366 75.055580,8.443896 90.017792,3.877325 
	C91.194931,3.518055 92.014336,1.986652 93.000000,0.999999 
M91.457787,149.999603 
	C92.391747,166.492722 93.325699,182.985840 94.292030,200.050644 
	C106.100990,193.367966 117.161369,187.034058 128.292358,180.826813 
	C146.547012,170.647018 164.887833,160.620483 183.061935,150.299728 
	C184.750031,149.341080 186.264175,146.845474 186.547699,144.874847 
	C187.398331,138.962372 187.683151,132.961365 188.038086,126.985962 
	C189.301193,105.721275 190.481598,84.451691 191.736526,63.186508 
	C192.211502,55.137722 192.803787,47.095860 193.397125,38.236740 
	C190.273102,39.278957 188.068054,39.905010 185.944870,40.739365 
	C154.433960,53.122272 122.966972,65.618423 91.385300,77.817772 
	C87.828506,79.191689 86.999161,80.820839 87.238022,84.319206 
	C88.711319,105.896439 89.993279,127.486740 91.457787,149.999603 
M6.909737,43.804405 
	C7.979988,53.220322 9.084075,62.632542 10.113676,72.052902 
	C12.499081,93.878220 14.783158,115.715080 17.321543,137.522446 
	C17.554890,139.527115 18.871616,141.902084 20.439524,143.178864 
	C37.554245,157.115677 54.807415,170.882751 72.050575,184.661392 
	C77.410622,188.944504 82.854462,193.122757 89.434273,198.267166 
	C88.936638,188.983826 88.549072,181.246277 88.102463,173.512146 
	C86.356293,143.272217 84.629356,113.030960 82.730942,82.800522 
	C82.626923,81.144104 81.428688,78.983994 80.063850,78.088043 
	C76.191780,75.546204 71.945534,73.580582 67.888275,71.313530 
	C52.545559,62.740555 37.236710,54.106812 21.876877,45.564697 
	C16.953777,42.826797 11.912198,40.301937 6.248283,37.323891 
	C6.532348,40.008286 6.687970,41.478905 6.909737,43.804405 
M147.464600,50.935169 
	C161.123657,45.603416 174.782715,40.271664 189.195801,34.645580 
	C182.457153,32.163078 176.690155,30.055140 170.935028,27.915226 
	C153.817245,21.550379 136.614532,15.400421 119.626244,8.706523 
	C110.852547,5.249424 102.637146,3.974852 93.287254,7.263094 
	C76.690590,13.099935 59.698467,17.812489 42.871033,22.992945 
	C32.016575,26.334574 21.160767,29.671816 9.371747,33.298279 
	C16.195183,37.194489 22.066427,40.599251 27.986197,43.917442 
	C45.945656,53.984200 63.893421,64.073036 81.945992,73.970428 
	C83.595779,74.874924 86.255592,75.219177 87.953522,74.557968 
	C107.602234,66.906349 127.155899,59.010658 147.464600,50.935169 
z"/>
<path fill="#010101" opacity="1.000000" stroke="none" 
	d="
M105.468658,201.000000 
	C106.138687,199.789215 107.064568,198.198578 108.447517,197.423828 
	C135.176453,182.449692 161.971786,167.594086 188.685059,152.592255 
	C189.803741,151.964020 190.832443,150.201447 190.936676,148.890488 
	C192.074371,134.582596 193.108322,120.264893 193.994949,105.938988 
	C195.222122,86.110878 196.306732,66.273911 197.429779,46.439457 
	C197.561157,44.119244 197.235703,41.723728 197.714142,39.489948 
	C198.033844,37.997269 199.402588,36.729275 200.650940,35.680367 
	C201.000000,90.907669 201.000000,145.815338 201.000000,201.000000 
	C169.312973,201.000000 137.625153,201.000000 105.468658,201.000000 
z"/>
<path fill="#010101" opacity="1.000000" stroke="none" 
	d="
M1.000000,50.468658 
	C1.659828,50.781910 2.809178,51.507042 2.907418,52.354084 
	C5.002655,70.419777 6.968853,88.500389 8.984090,106.575424 
	C10.297135,118.352379 11.599736,130.131088 13.053698,141.890884 
	C13.206333,143.125427 14.089147,144.565552 15.076713,145.356567 
	C29.574396,156.968475 44.187042,168.436859 58.687302,180.045593 
	C67.042702,186.734818 75.245377,193.614792 83.258392,200.704468 
	C55.718071,201.000000 28.436142,201.000000 1.000000,201.000000 
	C1.000000,150.979202 1.000000,100.958260 1.000000,50.468658 
z"/>
<path fill="#010101" opacity="1.000000" stroke="none" 
	d="
M201.000000,32.531342 
	C196.646591,31.659515 192.224014,30.508314 187.951263,28.947100 
	C164.403717,20.343143 140.890915,11.643963 117.377831,2.946004 
	C116.657845,2.679669 116.065346,2.068731 115.706711,1.309227 
	C144.226974,1.000000 172.453949,1.000000 201.000000,1.000000 
	C201.000000,11.352042 201.000000,21.707363 201.000000,32.531342 
z"/>
<path fill="#010101" opacity="1.000000" stroke="none" 
	d="
M92.531342,0.999999 
	C92.014336,1.986652 91.194931,3.518055 90.017792,3.877325 
	C75.055580,8.443896 60.029156,12.799366 45.045479,17.296545 
	C32.760876,20.983625 20.530672,24.853157 8.227732,28.476730 
	C6.191929,29.076336 3.906508,28.828428 1.368222,28.986092 
	C1.000000,19.700823 1.000000,10.401646 1.000000,1.000000 
	C31.354156,1.000000 61.708420,1.000000 92.531342,0.999999 
z"/>
<path fill="#F79327" opacity="1.000000" stroke="none" 
	d="
M91.398315,149.536148 
	C89.993279,127.486740 88.711319,105.896439 87.238022,84.319206 
	C86.999161,80.820839 87.828506,79.191689 91.385300,77.817772 
	C122.966972,65.618423 154.433960,53.122272 185.944870,40.739365 
	C188.068054,39.905010 190.273102,39.278957 193.397125,38.236740 
	C192.803787,47.095860 192.211502,55.137722 191.736526,63.186508 
	C190.481598,84.451691 189.301193,105.721275 188.038086,126.985962 
	C187.683151,132.961365 187.398331,138.962372 186.547699,144.874847 
	C186.264175,146.845474 184.750031,149.341080 183.061935,150.299728 
	C164.887833,160.620483 146.547012,170.647018 128.292358,180.826813 
	C117.161369,187.034058 106.100990,193.367966 94.292030,200.050644 
	C93.325699,182.985840 92.391747,166.492722 91.398315,149.536148 
M118.807213,106.324196 
	C114.353516,109.522224 110.034554,112.933891 105.405121,115.853241 
	C101.429062,118.360573 101.281357,122.337128 101.617836,125.926636 
	C101.744598,127.278946 105.276749,128.664764 107.469589,129.398026 
	C112.187263,130.975571 117.046783,132.126953 121.841309,133.477402 
	C124.918159,134.344040 127.982643,135.254593 131.515213,136.279678 
	C131.263565,131.883163 131.068695,128.478546 130.879425,125.172066 
	C124.220169,123.582108 118.041641,122.106926 111.065880,120.441406 
	C116.404312,116.549019 120.801315,112.653587 125.818047,109.878456 
	C130.870987,107.083290 130.314255,103.473824 129.271133,98.502182 
	C125.614960,101.196236 122.469696,103.513817 118.807213,106.324196 
M151.851181,101.917435 
	C157.645737,102.751114 163.440292,103.584785 169.693130,104.484398 
	C168.868378,105.751747 168.616516,106.421341 168.139542,106.824821 
	C165.486755,109.068855 162.850967,111.343475 160.076950,113.431717 
	C152.321228,119.270065 152.083359,119.997299 155.733444,129.442841 
	C163.282669,122.430901 170.855225,115.529716 178.217453,108.411011 
	C179.276993,107.386528 179.876450,105.260918 179.728943,103.737839 
	C179.373383,100.066208 177.385712,98.279015 173.266098,97.803856 
	C165.267548,96.881302 157.370605,95.077888 148.200592,93.416382 
	C149.405090,96.904701 150.228516,99.289413 151.851181,101.917435 
M144.885712,103.344467 
	C145.114273,100.193130 145.640808,97.023354 145.447418,93.898132 
	C145.348694,92.302666 143.958694,90.787117 143.152328,89.235443 
	C142.135818,90.544800 140.371475,91.772385 140.217987,93.176117 
	C138.611008,107.872978 137.173630,122.590782 135.961853,137.325195 
	C135.821899,139.027161 137.088730,142.202011 138.124802,142.391663 
	C141.369034,142.985550 141.984970,140.293549 142.187210,137.559586 
	C143.008575,126.455292 143.913712,115.357201 144.885712,103.344467 
z"/>
<path fill="#F79428" opacity="1.000000" stroke="none" 
	d="
M6.876665,43.376965 
	C6.687970,41.478905 6.532348,40.008286 6.248283,37.323891 
	C11.912198,40.301937 16.953777,42.826797 21.876877,45.564697 
	C37.236710,54.106812 52.545559,62.740555 67.888275,71.313530 
	C71.945534,73.580582 76.191780,75.546204 80.063850,78.088043 
	C81.428688,78.983994 82.626923,81.144104 82.730942,82.800522 
	C84.629356,113.030960 86.356293,143.272217 88.102463,173.512146 
	C88.549072,181.246277 88.936638,188.983826 89.434273,198.267166 
	C82.854462,193.122757 77.410622,188.944504 72.050575,184.661392 
	C54.807415,170.882751 37.554245,157.115677 20.439524,143.178864 
	C18.871616,141.902084 17.554890,139.527115 17.321543,137.522446 
	C14.783158,115.715080 12.499081,93.878220 10.113676,72.052902 
	C9.084075,62.632542 7.979988,53.220322 6.876665,43.376965 
M54.802311,94.646088 
	C45.541321,89.527657 36.208786,84.633743 23.480515,84.672394 
	C25.448816,89.792900 25.885847,95.344902 28.872135,97.815346 
	C35.937939,103.660622 43.974510,108.490654 52.095478,112.840935 
	C56.726143,115.321510 62.293468,116.053551 67.435379,117.571854 
	C69.632225,107.316902 66.426666,100.716331 57.816811,96.797386 
	C56.931454,96.394402 56.201149,95.650757 54.802311,94.646088 
M28.238176,110.803520 
	C39.779175,122.747925 53.317688,131.286194 70.008743,136.139008 
	C69.826012,132.764755 69.570076,130.459457 69.608086,128.159027 
	C69.661705,124.914413 68.330750,123.131760 65.098381,122.209724 
	C52.809914,118.704460 41.805820,112.706779 31.894112,104.639618 
	C30.740303,103.700531 29.103571,103.354782 26.740606,102.316467 
	C27.284613,105.613487 27.650419,107.830498 28.238176,110.803520 
M31.003357,117.372322 
	C30.341002,117.228760 29.678646,117.085197 29.016291,116.941635 
	C29.783810,120.193367 29.477659,124.599899 31.510881,126.490273 
	C38.988144,133.442184 47.012306,139.876358 55.294807,145.863251 
	C59.742916,149.078506 65.136223,150.986145 70.649559,153.758652 
	C70.649559,149.577362 70.943474,146.580215 70.509026,143.692642 
	C70.328018,142.489532 68.794418,141.024002 67.538055,140.520294 
	C54.146828,135.151245 42.153118,127.602829 31.003357,117.372322 
z"/>
<path fill="#F79429" opacity="1.000000" stroke="none" 
	d="
M147.099701,51.057457 
	C127.155899,59.010658 107.602234,66.906349 87.953522,74.557968 
	C86.255592,75.219177 83.595779,74.874924 81.945992,73.970428 
	C63.893421,64.073036 45.945656,53.984200 27.986197,43.917442 
	C22.066427,40.599251 16.195183,37.194489 9.371747,33.298279 
	C21.160767,29.671816 32.016575,26.334574 42.871033,22.992945 
	C59.698467,17.812489 76.690590,13.099935 93.287254,7.263094 
	C102.637146,3.974852 110.852547,5.249424 119.626244,8.706523 
	C136.614532,15.400421 153.817245,21.550379 170.935028,27.915226 
	C176.690155,30.055140 182.457153,32.163078 189.195801,34.645580 
	C174.782715,40.271664 161.123657,45.603416 147.099701,51.057457 
M140.489380,22.305038 
	C138.584808,21.713039 136.649231,21.204493 134.782425,20.510866 
	C131.377274,19.245674 127.397148,18.599346 124.769455,16.378471 
	C120.338745,12.633721 117.794121,11.461706 113.680466,14.746463 
	C110.929703,16.942951 108.922661,20.070843 105.516373,24.017570 
	C102.021210,24.017570 96.592224,23.275476 91.450493,24.175144 
	C81.367348,25.939428 70.360672,26.770283 66.159698,38.916050 
	C56.716038,39.160847 47.094368,37.925034 37.132492,42.882027 
	C39.628189,44.061413 41.170776,45.479378 42.507015,45.306099 
	C49.369251,44.416233 53.383286,50.170147 59.025352,52.033058 
	C60.014256,52.359573 61.078808,53.392338 61.494846,54.362156 
	C63.700481,59.503632 66.750710,60.668476 71.402893,58.138367 
	C76.317856,55.465351 79.727524,51.717979 80.320671,47.037815 
	C90.879639,45.674160 100.995636,44.997902 110.800797,42.881554 
	C117.421738,41.452480 123.851006,38.229256 123.445435,29.449100 
	C134.243652,29.461603 144.758926,29.987230 154.677979,26.075102 
	C154.692368,25.490078 154.706757,24.905052 154.721146,24.320028 
	C150.237183,23.762335 145.753235,23.204641 140.489380,22.305038 
z"/>
<path fill="#FFFCF9" opacity="1.000000" stroke="none" 
	d="
M119.065826,106.077805 
	C122.469696,103.513817 125.614960,101.196236 129.271133,98.502182 
	C130.314255,103.473824 130.870987,107.083290 125.818047,109.878456 
	C120.801315,112.653587 116.404312,116.549019 111.065880,120.441406 
	C118.041641,122.106926 124.220169,123.582108 130.879425,125.172066 
	C131.068695,128.478546 131.263565,131.883163 131.515213,136.279678 
	C127.982643,135.254593 124.918159,134.344040 121.841309,133.477402 
	C117.046783,132.126953 112.187263,130.975571 107.469589,129.398026 
	C105.276749,128.664764 101.744598,127.278946 101.617836,125.926636 
	C101.281357,122.337128 101.429062,118.360573 105.405121,115.853241 
	C110.034554,112.933891 114.353516,109.522224 119.065826,106.077805 
z"/>
<path fill="#FFFBF8" opacity="1.000000" stroke="none" 
	d="
M151.451569,101.795776 
	C150.228516,99.289413 149.405090,96.904701 148.200592,93.416382 
	C157.370605,95.077888 165.267548,96.881302 173.266098,97.803856 
	C177.385712,98.279015 179.373383,100.066208 179.728943,103.737839 
	C179.876450,105.260918 179.276993,107.386528 178.217453,108.411011 
	C170.855225,115.529716 163.282669,122.430901 155.733444,129.442841 
	C152.083359,119.997299 152.321228,119.270065 160.076950,113.431717 
	C162.850967,111.343475 165.486755,109.068855 168.139542,106.824821 
	C168.616516,106.421341 168.868378,105.751747 169.693130,104.484398 
	C163.440292,103.584785 157.645737,102.751114 151.451569,101.795776 
z"/>
<path fill="#FFFAF5" opacity="1.000000" stroke="none" 
	d="
M144.836823,103.800644 
	C143.913712,115.357201 143.008575,126.455292 142.187210,137.559586 
	C141.984970,140.293549 141.369034,142.985550 138.124802,142.391663 
	C137.088730,142.202011 135.821899,139.027161 135.961853,137.325195 
	C137.173630,122.590782 138.611008,107.872978 140.217987,93.176117 
	C140.371475,91.772385 142.135818,90.544800 143.152328,89.235443 
	C143.958694,90.787117 145.348694,92.302666 145.447418,93.898132 
	C145.640808,97.023354 145.114273,100.193130 144.836823,103.800644 
z"/>
<path fill="#FFFDFB" opacity="1.000000" stroke="none" 
	d="
M55.100609,94.855637 
	C56.201149,95.650757 56.931454,96.394402 57.816811,96.797386 
	C66.426666,100.716331 69.632225,107.316902 67.435379,117.571854 
	C62.293468,116.053551 56.726143,115.321510 52.095478,112.840935 
	C43.974510,108.490654 35.937939,103.660622 28.872135,97.815346 
	C25.885847,95.344902 25.448816,89.792900 23.480515,84.672394 
	C36.208786,84.633743 45.541321,89.527657 55.100609,94.855637 
z"/>
<path fill="#FFFCF8" opacity="1.000000" stroke="none" 
	d="
M28.127201,110.425514 
	C27.650419,107.830498 27.284613,105.613487 26.740606,102.316467 
	C29.103571,103.354782 30.740303,103.700531 31.894112,104.639618 
	C41.805820,112.706779 52.809914,118.704460 65.098381,122.209724 
	C68.330750,123.131760 69.661705,124.914413 69.608086,128.159027 
	C69.570076,130.459457 69.826012,132.764755 70.008743,136.139008 
	C53.317688,131.286194 39.779175,122.747925 28.127201,110.425514 
z"/>
<path fill="#FFFBF8" opacity="1.000000" stroke="none" 
	d="
M31.240307,117.648964 
	C42.153118,127.602829 54.146828,135.151245 67.538055,140.520294 
	C68.794418,141.024002 70.328018,142.489532 70.509026,143.692642 
	C70.943474,146.580215 70.649559,149.577362 70.649559,153.758652 
	C65.136223,150.986145 59.742916,149.078506 55.294807,145.863251 
	C47.012306,139.876358 38.988144,133.442184 31.510881,126.490273 
	C29.477659,124.599899 29.783810,120.193367 29.016291,116.941635 
	C29.678646,117.085197 30.341002,117.228760 31.240307,117.648964 
z"/>
<path fill="#FFFCF9" opacity="1.000000" stroke="none" 
	d="
M140.879333,22.475994 
	C145.753235,23.204641 150.237183,23.762335 154.721146,24.320028 
	C154.706757,24.905052 154.692368,25.490078 154.677979,26.075102 
	C144.758926,29.987230 134.243652,29.461603 123.445435,29.449100 
	C123.851006,38.229256 117.421738,41.452480 110.800797,42.881554 
	C100.995636,44.997902 90.879639,45.674160 80.320671,47.037815 
	C79.727524,51.717979 76.317856,55.465351 71.402893,58.138367 
	C66.750710,60.668476 63.700481,59.503632 61.494846,54.362156 
	C61.078808,53.392338 60.014256,52.359573 59.025352,52.033058 
	C53.383286,50.170147 49.369251,44.416233 42.507015,45.306099 
	C41.170776,45.479378 39.628189,44.061413 37.132492,42.882027 
	C47.094368,37.925034 56.716038,39.160847 66.159698,38.916050 
	C70.360672,26.770283 81.367348,25.939428 91.450493,24.175144 
	C96.592224,23.275476 102.021210,24.017570 105.516373,24.017570 
	C108.922661,20.070843 110.929703,16.942951 113.680466,14.746463 
	C117.794121,11.461706 120.338745,12.633721 124.769455,16.378471 
	C127.397148,18.599346 131.377274,19.245674 134.782425,20.510866 
	C136.649231,21.204493 138.584808,21.713039 140.879333,22.475994 
M103.011848,35.191010 
	C99.480949,33.784275 95.730568,32.755363 92.479561,30.866812 
	C89.083450,28.893967 86.414200,29.245924 83.605034,31.626415 
	C99.329536,38.717384 100.946327,41.885166 106.138222,37.134247 
	C105.289497,36.583939 104.463852,36.048603 103.011848,35.191010 
M58.077053,45.474186 
	C60.858234,47.070232 63.639416,48.666283 66.666000,50.403160 
	C68.603348,46.085476 68.072159,43.750122 63.369175,44.067444 
	C61.379147,44.201721 59.418907,44.777431 58.077053,45.474186 
M121.361137,20.130653 
	C119.402199,22.994455 119.613777,24.163750 122.599640,24.476574 
	C125.909416,24.823332 129.283539,24.555874 132.629639,24.555874 
	C132.678177,24.363125 132.726715,24.170378 132.775253,23.977629 
	C129.229599,22.756468 125.683952,21.535307 121.361137,20.130653 
M99.927467,29.152985 
	C103.267120,30.595793 106.606773,32.038601 109.946426,33.481407 
	C110.332031,33.069572 110.717644,32.657734 111.103249,32.245895 
	C110.265129,30.943697 109.543243,28.639206 108.567223,28.526016 
	C105.561371,28.177416 102.458374,28.666431 99.927467,29.152985 
M87.625961,39.155697 
	C84.924782,37.752422 82.223595,36.349152 78.511406,34.420658 
	C78.892960,36.889874 78.945076,39.563618 79.374260,39.625584 
	C82.166206,40.028648 85.040070,39.864388 87.625961,39.155697 
z"/>
<path fill="#F89A36" opacity="1.000000" stroke="none" 
	d="
M103.325027,35.352135 
	C104.463852,36.048603 105.289497,36.583939 106.138222,37.134247 
	C100.946327,41.885166 99.329536,38.717384 83.605034,31.626415 
	C86.414200,29.245924 89.083450,28.893967 92.479561,30.866812 
	C95.730568,32.755363 99.480949,33.784275 103.325027,35.352135 
z"/>
<path fill="#F89D3A" opacity="1.000000" stroke="none" 
	d="
M57.761089,45.313347 
	C59.418907,44.777431 61.379147,44.201721 63.369175,44.067444 
	C68.072159,43.750122 68.603348,46.085476 66.666000,50.403160 
	C63.639416,48.666283 60.858234,47.070232 57.761089,45.313347 
z"/>
<path fill="#F8A347" opacity="1.000000" stroke="none" 
	d="
M121.749725,20.222401 
	C125.683952,21.535307 129.229599,22.756468 132.775253,23.977629 
	C132.726715,24.170378 132.678177,24.363125 132.629639,24.555874 
	C129.283539,24.555874 125.909416,24.823332 122.599640,24.476574 
	C119.613777,24.163750 119.402199,22.994455 121.749725,20.222401 
z"/>
<path fill="#F8A246" opacity="1.000000" stroke="none" 
	d="
M99.660294,28.991491 
	C102.458374,28.666431 105.561371,28.177416 108.567223,28.526016 
	C109.543243,28.639206 110.265129,30.943697 111.103249,32.245895 
	C110.717644,32.657734 110.332031,33.069572 109.946426,33.481407 
	C106.606773,32.038601 103.267120,30.595793 99.660294,28.991491 
z"/>
<path fill="#F79832" opacity="1.000000" stroke="none" 
	d="
M87.756538,39.520752 
	C85.040070,39.864388 82.166206,40.028648 79.374260,39.625584 
	C78.945076,39.563618 78.892960,36.889874 78.511406,34.420658 
	C82.223595,36.349152 84.924782,37.752422 87.756538,39.520752 
z"/>
</svg>