<?xml version="1.0" encoding="UTF-8"?> <svg xmlns="http://www.w3.org/2000/svg" width="167" height="28" viewBox="0 0 167 28" fill="none"><g clip-path="url(#clip0_13827_3944)"><path d="M33.8336 11.3815C32.9903 10.8138 30.7749 10.5718 29.1642 11.0054C29.0776 9.4009 28.2501 8.04859 26.7363 6.86953L26.1763 6.49349L25.8028 7.05754C25.0691 8.17139 24.7598 9.65618 24.8689 11.0059C24.9555 11.8375 25.2444 12.772 25.8028 13.4502C23.7061 14.6665 21.7739 14.3903 13.2158 14.3903H0.00297464C-0.0357501 16.323 0.275067 20.04 2.63881 23.0662C2.89969 23.4004 3.18605 23.724 3.49686 24.0353C5.41884 25.9598 8.32268 27.3712 12.665 27.3748C19.2889 27.3809 24.9646 23.7999 28.4173 15.1424C29.5535 15.1612 32.5521 15.3457 34.0196 12.5101C34.0553 12.4622 34.3931 11.758 34.3931 11.758L33.8336 11.382V11.3815ZM8.62586 9.38714H4.91032V13.1027H8.62586V9.38714ZM13.4262 9.38714H9.71066V13.1027H13.4262V9.38714ZM18.2265 9.38714H14.511V13.1027H18.2265V9.38714ZM23.0269 9.38714H19.3113V13.1027H23.0269V9.38714ZM3.82653 9.38714H0.109977V13.1027H3.82552V9.38714H3.82653ZM8.62687 4.69381H4.91134V8.40934H8.62687V4.69381ZM13.4272 4.69381H9.71168V8.40934H13.4272V4.69381ZM18.2276 4.69381H14.512V8.40934H18.2276V4.69381ZM18.226 0.000976562H14.5105V3.71651H18.226V0.000976562Z" fill="#1D63ED"></path><path d="M118.716 21.6403C118.716 22.6054 117.958 23.3631 116.973 23.3631C115.987 23.3631 115.219 22.6054 115.219 21.6403C115.219 20.6753 115.997 19.9385 116.973 19.9385C117.948 19.9385 118.716 20.6962 118.716 21.6403ZM115.654 21.6403C115.654 22.398 116.215 22.9998 116.983 22.9998C117.751 22.9998 118.28 22.398 118.28 21.651C118.28 20.904 117.73 20.2809 116.973 20.2809C116.216 20.2809 115.655 20.8933 115.655 21.6403H115.654ZM116.703 22.533H116.309V20.8312C116.464 20.8001 116.682 20.7792 116.962 20.7792C117.284 20.7792 117.429 20.8312 117.553 20.904C117.647 20.9764 117.72 21.1114 117.72 21.2775C117.72 21.4645 117.574 21.6098 117.367 21.6719V21.6928C117.533 21.7545 117.626 21.8793 117.678 22.1076C117.73 22.3669 117.761 22.4709 117.803 22.533H117.378C117.326 22.4709 117.294 22.3155 117.243 22.1178C117.212 21.9313 117.108 21.8482 116.89 21.8482H116.703V22.5335V22.533ZM116.713 21.568H116.9C117.118 21.568 117.294 21.4956 117.294 21.3193C117.294 21.1634 117.18 21.0589 116.931 21.0589C116.827 21.0589 116.754 21.0696 116.713 21.0809V21.568Z" fill="#1D63ED"></path><path d="M51.849 4.41735C51.6049 4.17889 51.3119 4.05762 50.9609 4.05762C50.6098 4.05762 50.3081 4.17889 50.0732 4.41735C49.8378 4.65581 49.7227 4.96153 49.7227 5.32585V11.4097C48.5151 10.4115 47.1215 9.90811 45.5363 9.90811C43.6939 9.90811 42.1184 10.5736 40.8129 11.9091C39.5075 13.24 38.8594 14.8501 38.8594 16.7384C38.8594 18.6268 39.5121 20.2323 40.8129 21.5678C42.1184 22.8987 43.6898 23.5688 45.5363 23.5688C47.3829 23.5688 48.937 22.9033 50.2597 21.5678C51.5652 20.2502 52.2133 18.6405 52.2133 16.7384V5.32534C52.2133 4.96102 52.0936 4.6553 51.849 4.41684V4.41735ZM49.394 18.3842V18.3934C49.1765 18.9106 48.8789 19.3646 48.5018 19.7513C48.1248 20.1427 47.6805 20.4484 47.1745 20.6777C46.6639 20.907 46.1223 21.0196 45.5409 21.0196C44.9595 21.0196 44.4047 20.907 43.8941 20.6777C43.3836 20.4484 42.9438 20.1427 42.5713 19.7559C42.1984 19.3692 41.9013 18.9152 41.6837 18.398C41.4662 17.8762 41.3551 17.3234 41.3551 16.7384C41.3551 16.1535 41.4662 15.6007 41.6837 15.0789C41.9013 14.5571 42.1989 14.1077 42.5713 13.721C42.9443 13.3342 43.3881 13.0285 43.8941 12.7992C44.4047 12.5699 44.9509 12.4573 45.5409 12.4573C46.131 12.4573 46.6639 12.5699 47.1745 12.7992C47.6851 13.0285 48.1248 13.3342 48.5018 13.7256C48.8789 14.1169 49.1765 14.5709 49.394 15.0835C49.6116 15.6007 49.7227 16.1494 49.7227 16.7339C49.7227 17.3183 49.6116 17.8717 49.394 18.3842Z" fill="#1D63ED"></path><path d="M107.015 14.1168C106.691 13.3071 106.197 12.5744 105.55 11.9176L105.541 11.9131C104.222 10.5821 102.646 9.91211 100.818 9.91211C98.9894 9.91211 97.3991 10.5776 96.0937 11.9131C94.7882 13.244 94.1406 14.8541 94.1406 16.7424C94.1406 18.6308 94.7933 20.2363 96.0937 21.5718C97.3991 22.9027 98.971 23.5728 100.818 23.5728C102.495 23.5728 103.947 23.0199 105.181 21.9137C105.42 21.662 105.541 21.3563 105.541 21.0006C105.541 20.645 105.426 20.3306 105.19 20.0921C104.955 19.8537 104.657 19.7324 104.302 19.7324C103.992 19.7416 103.716 19.845 103.481 20.0519C103.108 20.3754 102.704 20.6231 102.265 20.7851C101.825 20.9471 101.346 21.0282 100.823 21.0282C100.361 21.0282 99.9167 20.9563 99.4953 20.808C99.0729 20.6598 98.6786 20.457 98.3275 20.192C97.9718 19.9265 97.6661 19.6122 97.4042 19.2387C97.1423 18.8698 96.9426 18.4606 96.8096 18.0112H106.252C106.602 18.0112 106.895 17.8899 107.14 17.6515C107.384 17.413 107.504 17.1073 107.504 16.743C107.504 15.7988 107.339 14.9219 107.016 14.1168H107.015ZM96.7999 15.4747C96.9288 15.0294 97.124 14.6202 97.3859 14.2472C97.6483 13.8783 97.9586 13.5594 98.3137 13.2939C98.6735 13.0284 99.0638 12.8261 99.4943 12.6779C99.9244 12.5296 100.364 12.4578 100.818 12.4578C101.272 12.4578 101.71 12.5296 102.135 12.6779C102.562 12.8261 102.953 13.0284 103.303 13.2939C103.659 13.5594 103.969 13.8738 104.231 14.2472C104.497 14.6161 104.698 15.0253 104.835 15.4747H96.7994H96.7999Z" fill="#1D63ED"></path><path d="M118.62 10.7669C118.398 10.5468 118.118 10.3756 117.781 10.2497C117.444 10.1239 117.075 10.0383 116.671 9.98884C116.272 9.93941 115.894 9.91699 115.544 9.91699C114.749 9.91699 114.003 10.0474 113.302 10.3083C112.601 10.5692 111.952 10.9422 111.357 11.4278V11.1852C111.357 10.8347 111.238 10.5376 110.993 10.2905C110.749 10.0434 110.46 9.9175 110.119 9.9175C109.778 9.9175 109.475 10.0434 109.232 10.2905C108.987 10.5376 108.867 10.8393 108.867 11.1852V22.3059C108.867 22.6564 108.987 22.9535 109.232 23.2006C109.475 23.4477 109.768 23.5736 110.119 23.5736C110.47 23.5736 110.753 23.4477 110.993 23.2006C111.238 22.9535 111.357 22.6518 111.357 22.3059V16.7432C111.357 16.1496 111.468 15.5922 111.686 15.0704C111.904 14.5487 112.201 14.0993 112.578 13.7125C112.956 13.3258 113.4 13.0201 113.905 12.7994C114.416 12.5747 114.958 12.4621 115.54 12.4621C116.122 12.4621 116.671 12.5656 117.174 12.7678C117.373 12.858 117.547 12.9029 117.697 12.9029C117.871 12.9029 118.035 12.8713 118.186 12.804C118.336 12.7368 118.47 12.6466 118.581 12.5299C118.692 12.4132 118.78 12.2782 118.847 12.1207C118.914 11.9679 118.949 11.8013 118.949 11.6214C118.949 11.2708 118.838 10.9875 118.617 10.7669H118.621H118.62Z" fill="#1D63ED"></path><path d="M66.493 14.1209C66.1689 13.3158 65.6849 12.5785 65.0327 11.9131C63.7145 10.5821 62.1385 9.91211 60.3093 9.91211C58.48 9.91211 56.8913 10.5776 55.5859 11.9131C54.2804 13.244 53.6328 14.8541 53.6328 16.7424C53.6328 18.6308 54.2855 20.2363 55.5859 21.5718C56.8913 22.9027 58.4627 23.5728 60.3093 23.5728C62.1558 23.5728 63.7099 22.9073 65.0327 21.5718C66.3381 20.2542 66.9862 18.6445 66.9862 16.7424C66.9771 15.7983 66.813 14.9259 66.4935 14.1209H66.493ZM64.167 18.3837V18.3928C63.9494 18.91 63.6518 19.364 63.2748 19.7507C62.8977 20.1421 62.4534 20.4478 61.9474 20.6771C61.4415 20.9064 60.8952 21.019 60.3139 21.019C59.7325 21.019 59.1776 20.9064 58.667 20.6771C58.1565 20.4478 57.7168 20.1421 57.3443 19.7553C56.9713 19.3686 56.6742 18.9146 56.4567 18.3974C56.2391 17.8757 56.128 17.3228 56.128 16.7379C56.128 16.1529 56.2391 15.6001 56.4567 15.0783C56.6742 14.5565 56.9718 14.1071 57.3443 13.7204C57.7173 13.3336 58.1611 13.0279 58.667 12.7986C59.1776 12.5693 59.7238 12.4567 60.3139 12.4567C60.9039 12.4567 61.4369 12.5693 61.9474 12.7986C62.458 13.0279 62.8977 13.3336 63.2748 13.725C63.6518 14.1163 63.9494 14.5703 64.167 15.0829C64.3845 15.6001 64.4956 16.1488 64.4956 16.7333C64.4956 17.3177 64.3845 17.8711 64.167 18.3837Z" fill="#1D63ED"></path><path d="M93.1932 11.1801C93.1932 11.0094 93.1575 10.8474 93.0913 10.6945C93.0245 10.5417 92.9359 10.4026 92.8248 10.2854C92.7137 10.1687 92.5807 10.0739 92.4299 10.0113C92.2791 9.94858 92.115 9.9124 91.9418 9.9124C91.6931 9.9124 91.4709 9.97558 91.2758 10.106L84.1464 14.8503V5.33422C84.1464 4.97449 84.0266 4.67335 83.7826 4.42571C83.5385 4.17859 83.2501 4.05273 82.9082 4.05273C82.5663 4.05273 82.2646 4.17859 82.0201 4.42571C81.776 4.67284 81.6562 4.97449 81.6562 5.33422V22.287C81.6562 22.6376 81.776 22.9392 82.0201 23.1909C82.2641 23.4426 82.5571 23.5685 82.9082 23.5685C83.2593 23.5685 83.5431 23.4426 83.7826 23.1909C84.0266 22.9392 84.1464 22.6376 84.1464 22.287V17.8846L85.6026 16.9088L91.1117 23.2358C91.3339 23.4559 91.6136 23.5639 91.9463 23.5639C92.1196 23.5639 92.2836 23.5323 92.4345 23.465C92.5853 23.4019 92.7188 23.3076 92.8294 23.1909C92.9404 23.0742 93.0291 22.9392 93.0958 22.7818C93.1626 22.6289 93.1978 22.4623 93.1978 22.2962C93.1978 21.9634 93.0826 21.6664 92.8513 21.406L87.7238 15.502L92.7178 12.1834C93.0373 11.9633 93.1927 11.626 93.1927 11.1715V11.1806L93.1932 11.1801Z" fill="#1D63ED"></path><path d="M72.0892 13.7116C72.4708 13.3249 72.9151 13.0191 73.4257 12.7985C73.9362 12.5738 74.4779 12.4612 75.0593 12.4612C75.5831 12.4612 76.0671 12.5514 76.5155 12.7307C76.9593 12.9106 77.3858 13.1761 77.7894 13.522C78.0288 13.7152 78.2999 13.814 78.6016 13.814C78.9613 13.814 79.2543 13.6927 79.4897 13.4497C79.7251 13.2066 79.8402 12.9009 79.8402 12.5366C79.8402 12.1723 79.6981 11.835 79.4097 11.5746C78.1843 10.4684 76.7331 9.91504 75.0593 9.91504C73.2168 9.91504 71.6413 10.5805 70.3359 11.916C69.0304 13.2469 68.3828 14.857 68.3828 16.7454C68.3828 18.6337 69.0355 20.2393 70.3359 21.5748C71.6413 22.9057 73.2127 23.5757 75.0593 23.5757C76.7285 23.5757 78.1802 23.0229 79.4097 21.9161C79.6716 21.6466 79.8051 21.3363 79.8051 20.9766C79.8051 20.6168 79.6894 20.3065 79.4545 20.0681C79.2191 19.8296 78.9221 19.7083 78.5669 19.7083C78.2653 19.7175 78.0029 19.8072 77.7812 19.9779C77.3817 20.3284 76.9644 20.5893 76.516 20.7646C76.0722 20.9399 75.5882 21.0255 75.0598 21.0255C74.4784 21.0255 73.9368 20.9129 73.4262 20.6882C72.9156 20.4635 72.4718 20.1577 72.0897 19.7756C71.708 19.3934 71.4059 18.9348 71.1883 18.4177C70.9708 17.8959 70.8597 17.3385 70.8597 16.7449C70.8597 16.1513 70.9708 15.5938 71.1883 15.0721C71.4059 14.5503 71.7075 14.1009 72.0897 13.7141V13.7096L72.0892 13.7116Z" fill="#1D63ED"></path><path d="M132.603 10.8351C131.703 10.3566 130.684 10.1172 129.549 10.1172C128.494 10.1172 127.537 10.3526 126.677 10.8229C126.115 11.1301 125.629 11.5082 125.217 11.9571V5.61541C125.217 5.29084 125.123 5.03556 124.937 4.84907C124.75 4.66258 124.503 4.56934 124.195 4.56934C123.87 4.56934 123.614 4.66309 123.428 4.84907C123.242 5.03556 123.148 5.29135 123.148 5.61541V22.5529C123.148 22.8612 123.242 23.1088 123.428 23.2953C123.615 23.4818 123.87 23.575 124.195 23.575C124.502 23.575 124.75 23.4818 124.937 23.2953C125.123 23.1088 125.217 22.8617 125.217 22.5529V15.4714C125.217 14.8064 125.395 14.2179 125.752 13.7069C126.109 13.1958 126.592 12.7907 127.2 12.4901C127.809 12.19 128.494 12.0396 129.257 12.0396C130.068 12.0396 130.79 12.1976 131.423 12.514C132.056 12.8304 132.554 13.3013 132.919 13.9254C133.284 14.5501 133.467 15.3572 133.467 16.3468V22.5524C133.467 22.8444 133.564 23.0879 133.759 23.2826C133.954 23.4772 134.205 23.5745 134.514 23.5745C134.806 23.5745 135.049 23.4772 135.244 23.2826C135.438 23.0879 135.536 22.8444 135.536 22.5524V16.3468C135.536 15.0006 135.272 13.8648 134.745 12.94C134.218 12.0152 133.504 11.3136 132.603 10.8351H132.603Z" fill="#1D63ED"></path><path d="M149.427 10.2637C149.119 10.2637 148.871 10.3574 148.685 10.5434C148.498 10.7299 148.405 10.9775 148.405 11.2858V18.3673C148.405 19.0328 148.226 19.6208 147.87 20.1319C147.512 20.6429 147.026 21.0485 146.409 21.3486C145.793 21.6493 145.103 21.7986 144.34 21.7986C143.578 21.7986 142.832 21.6406 142.199 21.3242C141.566 21.0078 141.063 20.5375 140.69 19.9128C140.317 19.2886 140.13 18.481 140.13 17.4914V11.2858C140.13 10.9938 140.033 10.7503 139.838 10.5556C139.644 10.361 139.4 10.2637 139.108 10.2637C138.816 10.2637 138.573 10.361 138.378 10.5556C138.183 10.7503 138.086 10.9938 138.086 11.2858V17.4914C138.086 18.8381 138.345 19.9739 138.865 20.8982C139.384 21.823 140.094 22.5246 140.994 23.0031C141.894 23.4821 142.92 23.721 144.072 23.721C145.127 23.721 146.084 23.4861 146.944 23.0153C147.508 22.7071 147.994 22.3269 148.405 21.8755V22.5287C148.405 22.8533 148.498 23.1091 148.684 23.2951C148.871 23.4816 149.118 23.5748 149.427 23.5748C149.735 23.5748 149.986 23.4816 150.181 23.2951C150.376 23.1086 150.473 22.8533 150.473 22.5287V11.2858C150.473 10.978 150.376 10.7304 150.181 10.5434C149.987 10.3569 149.735 10.2637 149.427 10.2637H149.427Z" fill="#1D63ED"></path><path d="M166.157 13.4516C165.598 12.4294 164.831 11.6223 163.858 11.0303C162.884 10.4382 161.781 10.1421 160.548 10.1421C159.494 10.1421 158.537 10.3653 157.677 10.8112C156.816 11.2575 156.119 11.8455 155.584 12.5757V5.61541C155.584 5.29084 155.49 5.03556 155.304 4.84907C155.118 4.66258 154.87 4.56934 154.562 4.56934C154.237 4.56934 153.981 4.66309 153.795 4.84907C153.609 5.03556 153.516 5.29135 153.516 5.61541V16.9801C153.531 18.2453 153.836 19.3856 154.428 20.3991C155.02 21.4131 155.819 22.2161 156.825 22.8082C157.831 23.4008 158.967 23.6963 160.232 23.6963C161.497 23.6963 162.686 23.4003 163.7 22.8082C164.713 22.2161 165.517 21.409 166.109 20.3869C166.701 19.3647 166.997 18.205 166.997 16.9067C166.997 15.6084 166.717 14.4732 166.157 13.4511V13.4516ZM164.38 19.4259C163.967 20.1642 163.399 20.7522 162.677 21.1904C161.955 21.6286 161.14 21.8477 160.231 21.8477C159.323 21.8477 158.556 21.6286 157.834 21.1904C157.112 20.7522 156.548 20.1647 156.143 19.4259C155.738 18.6876 155.535 17.8484 155.535 16.9072C155.535 15.9661 155.738 15.1473 156.143 14.4008C156.548 13.6549 157.112 13.0664 157.834 12.6363C158.556 12.2068 159.355 11.9912 160.231 11.9912C161.107 11.9912 161.955 12.2063 162.677 12.6363C163.399 13.0664 163.967 13.6544 164.38 14.4008C164.794 15.1473 165.001 15.9824 165.001 16.9072C165.001 17.8321 164.794 18.6881 164.38 19.4259Z" fill="#1D63ED"></path></g><defs><clipPath id="clip0_13827_3944"><rect width="167" height="27.3733" fill="white"></rect></clipPath></defs></svg> 