<?xml version="1.0" encoding="UTF-8" standalone="no"?>
<!-- Created with Inkscape (http://www.inkscape.org/) -->

<svg
   width="38.417702mm"
   height="39.884167mm"
   viewBox="0 0 38.417702 39.884167"
   version="1.1"
   id="svg1"
   inkscape:version="1.3.2 (091e20e, 2023-11-25, custom)"
   sodipodi:docname="dockerfiles-logo.svg"
   xmlns:inkscape="http://www.inkscape.org/namespaces/inkscape"
   xmlns:sodipodi="http://sodipodi.sourceforge.net/DTD/sodipodi-0.dtd"
   xmlns="http://www.w3.org/2000/svg"
   xmlns:svg="http://www.w3.org/2000/svg">
  <sodipodi:namedview
     id="namedview1"
     pagecolor="#ffffff"
     bordercolor="#000000"
     borderopacity="0.25"
     inkscape:showpageshadow="2"
     inkscape:pageopacity="0.0"
     inkscape:pagecheckerboard="0"
     inkscape:deskcolor="#d1d1d1"
     inkscape:document-units="mm"
     inkscape:zoom="5.911246"
     inkscape:cx="70.12058"
     inkscape:cy="71.812271"
     inkscape:window-width="2560"
     inkscape:window-height="1369"
     inkscape:window-x="-8"
     inkscape:window-y="-8"
     inkscape:window-maximized="1"
     inkscape:current-layer="layer1" />
  <defs
     id="defs1" />
  <g
     inkscape:label="Capa 1"
     inkscape:groupmode="layer"
     id="layer1"
     transform="translate(-37.603727,-72.62682)">
    <path
       inkscape:label="Face:4"
       style="fill:#00a2c2;fill-opacity:1;stroke:#000d47;stroke-width:1;stroke-linejoin:round;stroke-dasharray:none;stroke-opacity:1"
       d="M 38.103727,104.85145 V 89.985636 l 18.70885,-7.15956 v 14.8658 z"
       id="path119"
       sodipodi:nodetypes="ccccc" />
    <path
       inkscape:label="Face:1"
       style="fill:#006b80;fill-opacity:1;stroke:#000d47;stroke-width:1;stroke-linejoin:round;stroke-dasharray:none;stroke-opacity:1"
       d="m 75.521427,89.985636 v 14.865814 l -18.70885,-7.159574 v -14.8658 z"
       id="path120"
       sodipodi:nodetypes="ccccc" />
    <path
       inkscape:label="Face:5"
       style="fill:#102741;fill-opacity:1;stroke:#000000;stroke-width:0.529166;stroke-linejoin:round;stroke-opacity:1"
       d="m 56.812577,112.01101 -18.70885,-7.15956 18.70885,-7.159574 18.70885,7.159574 z"
       id="path121" />
    <g
       id="g1">
      <path
         style="fill:#30b1fe;fill-opacity:1;fill-rule:nonzero;stroke:none;stroke-width:0.0545838"
         d="m 56.906778,104.57658 c -2.80196,0 -5.440179,-1.47377 -6.895753,-3.85727 -2.801972,-0.0728 -5.385613,-1.619315 -6.786599,-4.039203 -1.400975,-2.438084 -1.437367,-5.44019 -0.109177,-7.896459 -1.328201,-2.45628 -1.291809,-5.476582 0.109177,-7.89647 1.400986,-2.438073 3.984627,-3.96642 6.786599,-4.039205 1.455574,-2.383495 4.075596,-3.857254 6.895753,-3.857254 2.801983,0 5.422006,1.473759 6.877569,3.857254 2.801971,0.07279 5.385613,1.601132 6.786599,4.039205 1.400986,2.419888 1.437378,5.44019 0.109176,7.89647 1.328213,2.456269 1.291821,5.458375 -0.109176,7.896459 -1.400986,2.419888 -3.984628,3.966433 -6.786599,4.039203 -1.455563,2.3835 -4.075586,3.85727 -6.877569,3.85727 z"
         id="path1-4" />
      <path
         style="fill:#212a50;fill-opacity:1;fill-rule:nonzero;stroke:none;stroke-width:0.0545838"
         d="m 56.906778,73.354607 c 2.85656,0 5.349221,1.546543 6.677434,3.857254 2.656415,0 5.258241,1.382802 6.677423,3.857266 1.437378,2.474465 1.328201,5.403799 0,7.714521 1.328201,2.310712 1.437378,5.240045 0,7.71451 -1.419182,2.474476 -4.021008,3.857262 -6.677423,3.857262 -1.328213,2.31072 -3.820874,3.85726 -6.677434,3.85726 -2.856549,0 -5.34921,-1.54654 -6.695607,-3.85726 -2.656415,0 -5.240056,-1.382786 -6.677434,-3.857262 -1.419182,-2.474465 -1.328202,-5.403798 0,-7.71451 -1.328202,-2.310722 -1.419182,-5.240056 0,-7.714521 1.437378,-2.474464 4.021019,-3.857266 6.677434,-3.857266 1.346397,-2.310711 3.839058,-3.857254 6.695607,-3.857254 m 0,-0.727787 c -1.510151,0 -3.002106,0.40028 -4.293927,1.164459 -1.128067,0.673199 -2.092381,1.60112 -2.801972,2.692807 -1.310005,0.07278 -2.601826,0.436672 -3.748089,1.091675 -1.310006,0.745983 -2.401692,1.819462 -3.147664,3.129467 -0.764179,1.310017 -1.146263,2.783787 -1.146263,4.293938 0.0182,1.310006 0.345692,2.620023 0.946117,3.784482 -0.600425,1.164448 -0.927921,2.474465 -0.946117,3.784482 0,1.510151 0.382084,2.98391 1.146263,4.293927 0.745972,1.310005 1.837658,2.383496 3.147664,3.129467 1.146263,0.636816 2.438084,1.018906 3.748089,1.073486 0.709591,1.10988 1.673905,2.0378 2.801972,2.711 1.291821,0.76418 2.783776,1.16446 4.293927,1.16446 1.510163,0 2.983922,-0.40028 4.275742,-1.16446 1.128068,-0.6732 2.092381,-1.60112 2.820168,-2.711 1.310006,-0.0546 2.601827,-0.43667 3.74809,-1.073486 1.29182,-0.745971 2.383496,-1.819462 3.147675,-3.129467 0.745972,-1.310017 1.146252,-2.783776 1.128056,-4.293927 -0.0182,-1.310017 -0.327496,-2.620034 -0.927922,-3.784482 0.600426,-1.164459 0.909737,-2.474476 0.927922,-3.784482 0.0182,-1.510151 -0.382084,-2.983921 -1.128056,-4.293938 -0.764179,-1.310005 -1.855855,-2.383484 -3.147675,-3.129467 -1.146263,-0.655003 -2.438084,-1.018902 -3.74809,-1.091675 -0.727787,-1.091687 -1.6921,-2.019608 -2.820168,-2.692807 C 59.8907,73.0271 58.416941,72.62682 56.906778,72.62682 Z"
         id="path2-6" />
      <path
         style="fill:#83d0f5;fill-opacity:1;fill-rule:nonzero;stroke:none;stroke-width:0.0545838"
         d="m 65.785758,88.783648 c 0.891541,1.528347 0.946118,3.493367 0,5.130879 -0.946117,1.637513 -2.67461,2.565446 -4.439484,2.565446 -0.891541,1.528336 -2.547249,2.565434 -4.439496,2.565434 -1.910431,0 -3.56614,-1.037098 -4.457669,-2.565434 -1.764885,0 -3.493378,-0.927933 -4.439496,-2.565446 -0.946117,-1.637512 -0.873333,-3.602532 0,-5.130879 -0.873333,-1.528347 -0.946117,-3.493367 0,-5.13089 0.946118,-1.637513 2.674611,-2.565435 4.439496,-2.565435 0.891529,-1.528347 2.547238,-2.565445 4.457669,-2.565445 1.892247,0 3.547955,1.037098 4.439496,2.565445 1.764874,0 3.493367,0.927922 4.439484,2.565435 0.946118,1.637523 0.891541,3.602543 0,5.13089 z"
         id="path3-6" />
      <path
         style="fill:none;stroke:#212a50;stroke-width:1.09168px;stroke-linecap:butt;stroke-linejoin:round;stroke-miterlimit:4;stroke-dasharray:none;stroke-opacity:1"
         d="m 53.649949,96.771076 h 6.550062"
         id="path4-3" />
      <path
         style="fill:none;stroke:#212a50;stroke-width:1.09168px;stroke-linecap:butt;stroke-linejoin:round;stroke-miterlimit:4;stroke-dasharray:none;stroke-opacity:1"
         d="m 53.013131,95.060791 h 7.841882"
         id="path5-3" />
      <path
         style="fill:none;stroke:#212a50;stroke-width:1.09168px;stroke-linecap:butt;stroke-linejoin:round;stroke-miterlimit:4;stroke-dasharray:none;stroke-opacity:1"
         d="m 53.013131,93.350494 h 7.841882"
         id="path6-7" />
      <path
         style="fill:none;stroke:#212a50;stroke-width:1.09168px;stroke-linecap:butt;stroke-linejoin:round;stroke-miterlimit:4;stroke-dasharray:none;stroke-opacity:1"
         d="m 53.595361,91.640197 h 6.677434"
         id="path7-0" />
      <path
         style="fill:none;stroke:#212a50;stroke-width:1.09168px;stroke-linecap:butt;stroke-linejoin:round;stroke-miterlimit:4;stroke-dasharray:none;stroke-opacity:1"
         d="M 60.200011,85.96348 H 53.649949"
         id="path8-0" />
      <path
         style="fill:none;stroke:#212a50;stroke-width:1.09168px;stroke-linecap:butt;stroke-linejoin:round;stroke-miterlimit:4;stroke-dasharray:none;stroke-opacity:1"
         d="M 61.036963,84.253183 H 52.812997"
         id="path9-1" />
      <path
         style="fill:none;stroke:#212a50;stroke-width:1.09168px;stroke-linecap:butt;stroke-linejoin:round;stroke-miterlimit:4;stroke-dasharray:none;stroke-opacity:1"
         d="m 52.903966,82.542886 h 7.951047"
         id="path10-6" />
      <path
         style="fill:none;stroke:#212a50;stroke-width:1.09168px;stroke-linecap:butt;stroke-linejoin:round;stroke-miterlimit:4;stroke-dasharray:none;stroke-opacity:1"
         d="m 53.468,80.832601 h 6.895764"
         id="path11-2" />
      <path
         style="fill:#fab42c;fill-opacity:1;fill-rule:nonzero;stroke:none;stroke-width:0.0545838"
         d="m 55.887887,78.449105 c -0.05459,0 -0.127361,-0.0182 -0.200145,-0.05459 -0.509446,-0.345703 -0.909726,-0.636807 -1.255429,-0.927922 -0.200134,-0.145557 -0.309311,-0.363899 -0.345692,-0.618622 -0.0182,-0.236526 0.05459,-0.473064 0.200135,-0.673198 0.181949,-0.218342 0.436672,-0.345703 0.727787,-0.345703 0.200146,0 0.40028,0.07278 0.564034,0.218341 0.473064,0.363888 1.018901,0.727787 1.528347,1.073479 0.09098,0.07278 0.163753,0.18195 0.163753,0.309311 0,0.109177 -0.07278,0.236527 -0.163753,0.291115 -0.09098,0.07278 -0.18195,0.127361 -0.272919,0.181938 -0.05459,0.03639 -0.05459,0.03639 -0.05459,0.03639 -0.218331,0.145557 -0.454857,0.291114 -0.673199,0.454868 -0.07278,0.03639 -0.145557,0.05459 -0.218331,0.05459 z"
         id="path12-4" />
      <path
         style="fill:#212a50;fill-opacity:1;fill-rule:nonzero;stroke:none;stroke-width:0.0545838"
         d="m 55.014543,76.192971 c 0.109176,0 0.236527,0.05459 0.345703,0.127361 0.473053,0.382084 1.000695,0.745972 1.546532,1.109871 -0.109176,0.05459 -0.21833,0.127361 -0.3093,0.200135 -0.236537,0.145557 -0.473064,0.309311 -0.709591,0.454868 -0.418476,-0.291115 -0.836952,-0.58223 -1.237232,-0.891529 -0.236527,-0.200146 -0.272919,-0.545849 -0.07278,-0.782376 0.109176,-0.145557 0.272918,-0.21833 0.436672,-0.21833 m 0,-0.727787 c 0,0 0,0 0,0 -0.40028,0 -0.764168,0.181949 -1.000706,0.473064 -0.21833,0.272919 -0.327496,0.618611 -0.291115,0.946118 0.03639,0.345691 0.218342,0.655002 0.473065,0.873344 0.363888,0.291104 0.764179,0.582219 1.29182,0.927922 0.127362,0.09098 0.272919,0.127361 0.40028,0.127361 0.145558,0 0.291115,-0.03639 0.418477,-0.127361 0.21833,-0.145558 0.454868,-0.309311 0.691395,-0.454869 0.03639,-0.0182 0.03639,-0.0182 0.03639,-0.0182 0.09098,-0.07278 0.181938,-0.127361 0.272918,-0.181938 0.200135,-0.127361 0.327496,-0.363899 0.327496,-0.600426 0,-0.254723 -0.127361,-0.473064 -0.327496,-0.618622 -0.509456,-0.327495 -1.037098,-0.691395 -1.491966,-1.055283 -0.236526,-0.181949 -0.509445,-0.291114 -0.80056,-0.291114 z"
         id="path13-8" />
      <path
         style="fill:#f49739;fill-opacity:1;fill-rule:nonzero;stroke:none;stroke-width:0.0545838"
         d="m 58.799025,101.72002 c -0.218331,0 -0.418477,-0.0728 -0.58223,-0.20015 -0.473053,-0.36389 -1.000706,-0.74597 -1.510151,-1.07348 -0.309311,-0.20013 -0.309311,-0.20013 -0.309311,-0.20013 C 56.160806,100.0825 55.92428,99.936947 55.687742,99.773194 55.596761,99.70041 55.524,99.591244 55.524,99.482079 c 0,-0.127361 0.07278,-0.236526 0.163742,-0.309311 0.236538,-0.145557 0.454868,-0.309311 0.691395,-0.454857 0.327507,-0.218342 0.327507,-0.218342 0.327507,-0.218342 0.05459,-0.03639 0.127361,-0.05459 0.200134,-0.05459 0.07278,0 0.127373,0.0182 0.200146,0.05459 0.382084,0.254723 0.382084,0.254723 0.382084,0.254723 0.200145,0.145557 0.418476,0.272919 0.618622,0.418476 0.509445,0.345703 0.909725,0.636818 1.273624,0.927932 0.382084,0.3093 0.454869,0.89153 0.127362,1.29181 -0.18195,0.21834 -0.436673,0.32751 -0.709591,0.32751 z"
         id="path14-7" />
      <path
         style="fill:#212a50;fill-opacity:1;fill-rule:nonzero;stroke:none;stroke-width:0.0545838"
         d="m 56.906778,98.80888 c 0.09098,0.07278 0.200146,0.127362 0.291126,0.200135 0.236527,0.145557 0.473053,0.309311 0.70958,0.473064 0.418476,0.272919 0.836952,0.582231 1.237244,0.891541 0.236526,0.20013 0.272918,0.54584 0.07278,0.78236 -0.109176,0.14556 -0.254723,0.20015 -0.418476,0.20015 -0.127361,0 -0.254723,-0.0364 -0.363888,-0.10918 -0.473065,-0.38208 -1.000706,-0.74597 -1.528359,-1.10987 -0.109176,-0.0728 -0.21833,-0.12736 -0.309299,-0.200133 -0.236538,-0.145557 -0.473065,-0.30931 -0.709591,-0.454868 0.236526,-0.163753 0.473053,-0.327507 0.709591,-0.473064 0.09098,-0.07279 0.200134,-0.127362 0.309299,-0.200135 m 0,-0.727787 c -0.145546,0 -0.291103,0.03639 -0.400268,0.127362 -0.07278,0.03639 -0.127373,0.07278 -0.18195,0.109176 -0.127361,0.09098 -0.127361,0.09098 -0.127361,0.09098 -0.0182,0 -0.0182,0 -0.0182,0 -0.218342,0.145558 -0.454869,0.309311 -0.691395,0.454858 -0.200146,0.145557 -0.327507,0.363899 -0.327507,0.618621 0,0.236527 0.127361,0.454869 0.327507,0.60043 0.236526,0.14555 0.473053,0.30931 0.709579,0.45485 0.07279,0.0546 0.07279,0.0546 0.07279,0.0546 0.07278,0.0546 0.145557,0.10918 0.236526,0.14556 0.491261,0.3457 1.018902,0.70959 1.473771,1.07348 0.236526,0.18195 0.527641,0.27292 0.818756,0.27292 0.382084,0 0.745983,-0.16375 1.000706,-0.47306 0.436672,-0.54583 0.345692,-1.34639 -0.200146,-1.801263 -0.345692,-0.291114 -0.764168,-0.582229 -1.291821,-0.946128 -0.200134,-0.127362 -0.418476,-0.272919 -0.61861,-0.400281 -0.09098,-0.05459 -0.09098,-0.05459 -0.09098,-0.05459 -0.200145,-0.145557 -0.200145,-0.145557 -0.200145,-0.145557 -0.09098,-0.05459 -0.09098,-0.05459 -0.09098,-0.05459 -0.127372,-0.09098 -0.272919,-0.127362 -0.400291,-0.127362 z"
         id="path15-3" />
      <path
         style="fill:#f49739;fill-opacity:1;fill-rule:nonzero;stroke:none;stroke-width:0.0545838"
         d="m 55.887887,89.147536 c -0.05459,0 -0.127361,-0.0182 -0.200145,-0.07278 -0.727776,-0.49125 -1.582924,-1.091675 -2.256123,-1.837647 -1.018902,-1.128067 -1.510163,-2.3653 -1.510163,-3.802678 0,-1.437378 0.491261,-2.674611 1.510163,-3.784482 0.673199,-0.745983 1.528347,-1.364593 2.256123,-1.855854 0.236538,-0.163753 0.473064,-0.309311 0.691395,-0.473053 0.05459,-0.03639 0.05459,-0.03639 0.05459,-0.03639 0.09098,-0.05459 0.18195,-0.109177 0.272919,-0.163754 0.509445,-0.345692 1.037098,-0.709591 1.510151,-1.073479 0.163753,-0.145557 0.363899,-0.218341 0.58223,-0.218341 0.272918,0 0.527641,0.127361 0.709591,0.345703 0.327507,0.40028 0.254722,0.982509 -0.127362,1.29182 -0.363899,0.291115 -0.764179,0.582219 -1.273624,0.927922 -0.218342,0.145557 -0.436673,0.291115 -0.655003,0.436672 -0.345703,0.236527 -0.345703,0.236527 -0.345703,0.236527 -1.892235,1.237232 -3.34781,2.365299 -3.34781,4.366711 0,2.001412 1.455575,3.129479 3.34781,4.384907 0.09098,0.05459 0.163753,0.181939 0.163753,0.291104 0,0.127373 -0.07278,0.236538 -0.163753,0.309311 -0.327507,0.200146 -0.327507,0.200146 -0.327507,0.200146 -0.218331,0.163753 -0.454857,0.309311 -0.673199,0.454857 -0.07278,0.05459 -0.145557,0.07278 -0.218331,0.07278 z"
         id="path16-9" />
      <path
         style="fill:#212a50;fill-opacity:1;fill-rule:nonzero;stroke:none;stroke-width:0.0545838"
         d="m 58.799025,76.192971 c 0.163753,0 0.309311,0.07278 0.418476,0.21833 0.200145,0.236527 0.163753,0.58223 -0.07278,0.782376 -0.400291,0.309299 -0.818767,0.600414 -1.237243,0.891529 -0.236527,0.163753 -0.473053,0.309311 -0.70958,0.473064 -0.09098,0.05459 -0.200146,0.127362 -0.291126,0.200135 -1.855843,1.219047 -3.511552,2.419888 -3.511552,4.676022 0,2.256134 1.655709,3.456975 3.511552,4.676011 -0.109177,0.07278 -0.218331,0.145557 -0.3093,0.200146 -0.236538,0.163753 -0.473064,0.309311 -0.709591,0.473064 -0.782375,-0.545837 -1.564739,-1.109871 -2.183361,-1.801277 -0.964314,-1.037087 -1.419171,-2.201546 -1.419171,-3.547944 0,-1.346398 0.454857,-2.510857 1.419171,-3.547955 0.618622,-0.691395 1.400986,-1.255429 2.183361,-1.801266 0.236527,-0.145557 0.473053,-0.309311 0.709591,-0.454868 0.09098,-0.07278 0.200135,-0.145558 0.3093,-0.200135 0.527653,-0.363899 1.055294,-0.727787 1.528358,-1.109871 0.109177,-0.07278 0.236527,-0.127361 0.363888,-0.127361 m 0,-0.727787 c 0,0 0,0 0,0 -0.291114,0 -0.582229,0.109176 -0.818756,0.291114 -0.454868,0.363888 -0.98251,0.727788 -1.473759,1.055283 -0.09098,0.07278 -0.18195,0.127362 -0.27293,0.18195 -0.03639,0.0182 -0.03639,0.0182 -0.03639,0.0182 -0.236538,0.163753 -0.473065,0.309311 -0.709591,0.473064 -0.745983,0.509446 -1.619328,1.146252 -2.328919,1.910432 -1.073479,1.182644 -1.60112,2.510857 -1.60112,4.039204 0,1.528347 0.527641,2.85656 1.60112,4.039204 0.709591,0.782376 1.56474,1.400986 2.328919,1.910432 0.127361,0.09098 0.272919,0.127361 0.40028,0.127361 0.145557,0 0.291115,-0.03639 0.418476,-0.127361 0.218331,-0.163743 0.454869,-0.3093 0.691395,-0.454857 0.200146,-0.145558 0.200146,-0.145558 0.200146,-0.145558 0.109176,-0.05459 0.109176,-0.05459 0.109176,-0.05459 0.200135,-0.145558 0.327496,-0.363888 0.327496,-0.618622 0,-0.236527 -0.127361,-0.473053 -0.327496,-0.600414 -1.87405,-1.237233 -3.184067,-2.237939 -3.184067,-4.075597 0,-1.819462 1.310017,-2.838364 3.184067,-4.075596 0.09098,-0.07278 0.09098,-0.07278 0.09098,-0.07278 0.200145,-0.127361 0.200145,-0.127361 0.200145,-0.127361 0.07278,-0.03639 0.07278,-0.03639 0.07278,-0.03639 0.200145,-0.145558 0.418476,-0.272919 0.636818,-0.436673 0.527641,-0.345703 0.946117,-0.636806 1.291809,-0.927921 0.545838,-0.454868 0.636818,-1.255429 0.200146,-1.801266 -0.254723,-0.309311 -0.618622,-0.491261 -1.000706,-0.491261 z"
         id="path17-8" />
      <path
         style="fill:#fab42c;fill-opacity:1;fill-rule:nonzero;stroke:none;stroke-width:0.0545838"
         d="m 55.887887,99.845967 c -0.05459,0 -0.127361,-0.03639 -0.200145,-0.07278 -0.727776,-0.49125 -1.582924,-1.109871 -2.256123,-1.855855 -1.018902,-1.109871 -1.510163,-2.347103 -1.510163,-3.784481 0,-1.437367 0.491261,-2.692796 1.510163,-3.802667 0.673199,-0.745983 1.528347,-1.346409 2.256123,-1.855854 0.236538,-0.145557 0.473064,-0.309311 0.691395,-0.454868 0.327507,-0.200135 0.327507,-0.200135 0.327507,-0.200135 1.892246,-1.255428 3.329613,-2.383495 3.329613,-4.384907 0,-2.001412 -1.437367,-3.129479 -3.329613,-4.366712 -0.109177,-0.07278 -0.163754,-0.181949 -0.163754,-0.30931 0,-0.127362 0.05459,-0.236527 0.163754,-0.3093 0.345703,-0.236538 0.345703,-0.236538 0.345703,-0.236538 0.21833,-0.145557 0.436661,-0.272919 0.655003,-0.418476 0.05459,-0.05459 0.127361,-0.07278 0.200134,-0.07278 0.07278,0 0.145557,0.0182 0.200146,0.07278 0.745983,0.49126 1.582935,1.109871 2.27433,1.855854 1.000706,1.109871 1.510151,2.347104 1.510151,3.784482 0,1.437378 -0.509445,2.67461 -1.510151,3.802678 -0.691395,0.727775 -1.528347,1.346397 -2.27433,1.837647 -0.236527,0.163753 -0.473065,0.327507 -0.709591,0.473064 -0.291115,0.200146 -0.291115,0.200146 -0.291115,0.200146 -1.892235,1.255428 -3.34781,2.365299 -3.34781,4.384896 0,2.001411 1.455575,3.111283 3.34781,4.366711 0.09098,0.07278 0.163753,0.18195 0.163753,0.309311 0,0.127361 -0.07278,0.236527 -0.163753,0.309311 -0.327507,0.21833 -0.327507,0.21833 -0.327507,0.21833 -0.236527,0.145558 -0.454857,0.291115 -0.673199,0.436673 -0.07278,0.03639 -0.145557,0.07278 -0.218331,0.07278 z"
         id="path18-1" />
      <path
         style="fill:#212a50;fill-opacity:1;fill-rule:nonzero;stroke:none;stroke-width:0.0545838"
         d="m 57.907484,78.085206 c 0.800571,0.545837 1.564739,1.109871 2.201557,1.801266 0.946118,1.037098 1.419171,2.201557 1.419171,3.547955 0,1.346398 -0.473053,2.510857 -1.419171,3.547944 -0.636818,0.691406 -1.400986,1.25544 -2.201557,1.801277 -0.236527,0.163742 -0.473053,0.3093 -0.70958,0.454857 -0.09098,0.07278 -0.200145,0.145558 -0.291126,0.200146 -1.855843,1.219036 -3.511552,2.438084 -3.511552,4.694207 0,2.237938 1.655709,3.456986 3.511552,4.676022 -0.109176,0.07278 -0.21833,0.127362 -0.3093,0.200135 -0.236537,0.145557 -0.473064,0.309311 -0.709591,0.473064 -0.782375,-0.545837 -1.564739,-1.128067 -2.183361,-1.801266 -0.964314,-1.055283 -1.419171,-2.201546 -1.419171,-3.547955 0,-1.346398 0.454857,-2.510857 1.419171,-3.547944 0.618622,-0.691395 1.400986,-1.273624 2.183361,-1.801266 0.236527,-0.163753 0.473054,-0.309311 0.709591,-0.473064 0.09098,-0.05459 0.200135,-0.127362 0.3093,-0.200146 1.837658,-1.219036 3.493378,-2.419877 3.493378,-4.676011 0,-2.256134 -1.65572,-3.456975 -3.493378,-4.676022 0.09098,-0.07278 0.200146,-0.145558 0.291126,-0.200135 0.236527,-0.163753 0.473053,-0.309311 0.70958,-0.473064 m 0,-0.727787 c -0.145557,0 -0.291104,0.05459 -0.418476,0.127361 -0.200135,0.145558 -0.418476,0.291115 -0.618611,0.418476 -0.07278,0.03639 -0.07278,0.03639 -0.07278,0.03639 -0.200135,0.145557 -0.200135,0.145557 -0.200135,0.145557 -0.09098,0.05459 -0.09098,0.05459 -0.09098,0.05459 -0.218342,0.145558 -0.327507,0.363888 -0.327507,0.618611 0,0.236538 0.109177,0.473064 0.327507,0.600426 1.855843,1.237232 3.16586,2.256134 3.16586,4.075596 0,1.837658 -1.310017,2.838364 -3.16586,4.075597 -0.109176,0.07278 -0.109176,0.07278 -0.109176,0.07278 -0.200135,0.127361 -0.200135,0.127361 -0.200135,0.127361 -0.236538,0.145558 -0.473064,0.309311 -0.709591,0.473065 -0.764179,0.509445 -1.619328,1.128067 -2.328919,1.910431 -1.073479,1.182655 -1.60112,2.492661 -1.60112,4.039204 0,1.528348 0.527641,2.85656 1.60112,4.039205 0.709591,0.764179 1.56474,1.400986 2.328919,1.910441 0.127361,0.0728 0.272919,0.12736 0.40028,0.12736 0.145558,0 0.291115,-0.0546 0.418476,-0.12736 0.218331,-0.163752 0.454869,-0.30931 0.673199,-0.454867 0.0182,-0.0182 0.0182,-0.0182 0.0182,-0.0182 0.127362,-0.07279 0.127362,-0.07279 0.127362,-0.07279 0.05459,-0.03639 0.109176,-0.07278 0.181949,-0.127361 0.200135,-0.127361 0.327507,-0.363888 0.327507,-0.600415 0,-0.236537 -0.127372,-0.473064 -0.327507,-0.600425 -1.87405,-1.237233 -3.184056,-2.256135 -3.184056,-4.075597 0,-1.837658 1.310006,-2.838364 3.184056,-4.075596 0.09098,-0.07278 0.09098,-0.07278 0.09098,-0.07278 0.200145,-0.127361 0.200145,-0.127361 0.200145,-0.127361 0.236527,-0.163753 0.473054,-0.309311 0.709591,-0.473064 0.764168,-0.509446 1.637513,-1.146264 2.328908,-1.910432 1.091675,-1.182655 1.619316,-2.510857 1.619316,-4.039204 0,-1.528347 -0.527641,-2.85656 -1.619316,-4.039204 -0.691395,-0.76418 -1.56474,-1.400986 -2.328908,-1.910443 -0.109176,-0.07278 -0.254734,-0.127361 -0.40028,-0.127361 z"
         id="path19-5" />
      <path
         style="fill:#f49739;fill-opacity:1;fill-rule:nonzero;stroke:none;stroke-width:0.0545838"
         d="m 55.014543,101.72002 c -0.291115,0 -0.545838,-0.10918 -0.727787,-0.32751 -0.145558,-0.20013 -0.218331,-0.43667 -0.200135,-0.6732 0.03639,-0.25472 0.145558,-0.47305 0.345692,-0.61861 0.345703,-0.291114 0.727787,-0.582229 1.255429,-0.927932 0.236538,-0.145557 0.454868,-0.309311 0.691395,-0.454857 0.327507,-0.218342 0.327507,-0.218342 0.327507,-0.218342 1.892246,-1.255428 3.329613,-2.365299 3.329613,-4.366711 0,-2.019597 -1.437367,-3.129468 -3.329613,-4.384896 -0.109177,-0.07278 -0.163754,-0.18195 -0.163754,-0.309311 0,-0.109177 0.05459,-0.236527 0.163754,-0.291115 0.291115,-0.200146 0.291115,-0.200146 0.291115,-0.200146 0.236526,-0.163742 0.473053,-0.309299 0.709591,-0.473053 0.05459,-0.03639 0.127361,-0.05459 0.200134,-0.05459 0.07278,0 0.145557,0.0182 0.200146,0.05459 0.745983,0.509446 1.582935,1.109871 2.27433,1.855855 1.000706,1.109871 1.510151,2.365299 1.510151,3.802666 0,1.437378 -0.509445,2.674611 -1.510151,3.784482 -0.691395,0.745983 -1.528347,1.364605 -2.27433,1.855854 -0.236527,0.163753 -0.473065,0.327506 -0.709591,0.473066 -0.291115,0.20013 -0.291115,0.20013 -0.291115,0.20013 -0.509446,0.32751 -1.055283,0.6914 -1.528347,1.07348 -0.163754,0.12736 -0.363888,0.20015 -0.564034,0.20015 z"
         id="path20-1" />
      <path
         style="fill:#212a50;fill-opacity:1;fill-rule:nonzero;stroke:none;stroke-width:0.0545838"
         d="m 57.907484,88.783648 c 0.800571,0.527642 1.564739,1.109871 2.201557,1.801266 0.946118,1.037087 1.419171,2.201546 1.419171,3.547944 0,1.346409 -0.473053,2.492672 -1.419171,3.547955 -0.636818,0.673199 -1.400986,1.255429 -2.201557,1.801266 -0.236527,0.145558 -0.473053,0.309311 -0.70958,0.454868 -0.09098,0.07278 -0.200145,0.127363 -0.291126,0.200133 -0.545837,0.3457 -1.073479,0.72779 -1.546532,1.10987 -0.109176,0.0728 -0.236538,0.10918 -0.345703,0.10918 -0.163754,0 -0.327507,-0.0546 -0.436672,-0.20015 -0.200135,-0.23652 -0.163743,-0.58223 0.07278,-0.78236 0.40028,-0.30931 0.818756,-0.618622 1.237232,-0.891541 0.236527,-0.163753 0.473054,-0.327507 0.709591,-0.473064 0.09098,-0.07279 0.200135,-0.127362 0.3093,-0.200135 1.837658,-1.219036 3.493378,-2.438084 3.493378,-4.676022 0,-2.256123 -1.65572,-3.475171 -3.493378,-4.694207 0.09098,-0.05459 0.200146,-0.127361 0.291126,-0.200146 0.236527,-0.145557 0.473053,-0.291115 0.70958,-0.454857 m 0,-0.727787 c -0.145557,0 -0.291104,0.03639 -0.40028,0.127361 -0.236527,0.145558 -0.473053,0.309311 -0.709591,0.454869 -0.200135,0.127361 -0.200135,0.127361 -0.200135,0.127361 -0.09098,0.07278 -0.09098,0.07278 -0.09098,0.07278 -0.218342,0.127362 -0.327507,0.3639 -0.327507,0.600426 0,0.254723 0.109177,0.473065 0.327507,0.618611 1.855843,1.237243 3.16586,2.237938 3.16586,4.075596 0,1.819462 -1.310017,2.838364 -3.16586,4.075597 -0.07278,0.03639 -0.127373,0.07278 -0.18195,0.109176 -0.127361,0.09098 -0.127361,0.09098 -0.127361,0.09098 -0.0182,0 -0.0182,0 -0.0182,0 -0.218342,0.145557 -0.454868,0.309311 -0.691395,0.454857 -0.527653,0.363899 -0.927933,0.655014 -1.291821,0.946129 -0.254722,0.218326 -0.436672,0.527636 -0.473064,0.855146 -0.03639,0.34569 0.07278,0.69139 0.291115,0.94611 0.236526,0.30932 0.600426,0.47306 1.000706,0.47306 0.291115,0 0.564033,-0.091 0.80056,-0.27292 0.454868,-0.36389 0.98251,-0.72777 1.491966,-1.05528 0.09098,-0.0728 0.200135,-0.14556 0.291115,-0.21835 0.236527,-0.14553 0.473053,-0.30929 0.70958,-0.45484 0.764179,-0.509464 1.637524,-1.146271 2.328919,-1.91045 1.091675,-1.182644 1.619316,-2.510857 1.619316,-4.039205 0,-1.546543 -0.527641,-2.856548 -1.619316,-4.039204 -0.691395,-0.782364 -1.56474,-1.400986 -2.328919,-1.910431 -0.109177,-0.09098 -0.254723,-0.127361 -0.40028,-0.127361 z"
         id="path21-1" />
    </g>
    <path
       inkscape:label="Face:0"
       style="fill:#00bbe0;fill-opacity:0.94999999;stroke:#000d47;stroke-width:1;stroke-linecap:round;stroke-linejoin:round;stroke-dasharray:none;stroke-opacity:1"
       d="m 75.521427,89.985636 -18.70885,7.15957 v 14.865804 l 18.70885,-7.15956 z"
       id="path240"
       sodipodi:nodetypes="ccccc" />
    <path
       inkscape:label="Face:3"
       style="fill:#24dbff;fill-opacity:0.94999999;stroke:#000d47;stroke-width:1;stroke-linecap:round;stroke-linejoin:round;stroke-dasharray:none;stroke-opacity:1"
       d="m 56.812577,97.234726 -18.70885,-7.15957 v 14.776294 l 18.70885,7.15956 z"
       id="path241"
       sodipodi:nodetypes="ccccc" />
  </g>
</svg>
