<?xml version="1.0" encoding="UTF-8"?>
<svg id="Layer_2" data-name="Layer 2" xmlns="http://www.w3.org/2000/svg" viewBox="0 0 700 557.77">
  <defs>
    <style>
      .cls-1 {
        fill: #008bbb;
      }

      .cls-2 {
        fill: #fefefe;
      }
    </style>
  </defs>
  <g id="Layer_1-2" data-name="Layer 1">
    <g>
      <g>
        <path class="cls-1" d="M217.5,0h67c.11,0,1.5,1.39,1.5,1.5v67c0,.11-1.39,1.5-1.5,1.5h-67c-.11,0-1.5-1.39-1.5-1.5V1.5c0-.27,1.17-.99,1.5-1.5Z"/>
        <path class="cls-1" d="M299.5,2h67c.11,0,1.5,1.39,1.5,1.5v67c0,.11-1.39,1.5-1.5,1.5h-67c-.11,0-1.5-1.39-1.5-1.5V3.5c0-.27,1.17-.99,1.5-1.5Z"/>
        <path class="cls-1" d="M297.5,83h67c.11,0,1.5,1.39,1.5,1.5v67c0,.11-1.39,1.5-1.5,1.5h-67c-.11,0-1.5-1.39-1.5-1.5v-67c0-.27,1.17-.99,1.5-1.5Z"/>
        <path class="cls-1" d="M219.5,160h67c.11,0,1.5,1.39,1.5,1.5v67c0,.11-1.39,1.5-1.5,1.5h-67c-.11,0-1.5-1.39-1.5-1.5v-67c0-.27,1.17-.99,1.5-1.5Z"/>
        <path class="cls-1" d="M202,150h-69v-70h67.5c.11,0,1.5,1.39,1.5,1.5v68.5Z"/>
        <path class="cls-1" d="M202,240v70h-69v-68.5c0-.11,1.39-1.5,1.5-1.5h67.5Z"/>
        <path class="cls-1" d="M134,70V0h67.5c.11,0,1.5,1.39,1.5,1.5v67c0,.11-1.39,1.5-1.5,1.5h-67.5Z"/>
        <path class="cls-1" d="M134,230v-68.5c0-.11,1.39-1.5,1.5-1.5h66c.11,0,1.5,1.39,1.5,1.5v67c0,.11-1.39,1.5-1.5,1.5h-67.5Z"/>
        <rect class="cls-1" x="293" y="235" width="69" height="69"/>
      </g>
      <g>
        <path class="cls-1" d="M0,349l562.42-.02c2.16,93.66-78.31,160.68-159.91,189.04-138.62,48.17-343.91,11.01-397.78-142.25l-4.74-17.76v-29ZM198.74,385.24c-17.83,3-19.58,31.71-1.01,35.53,29.97,6.17,30.45-40.48,1.01-35.53ZM128,413c-27.63.4-55.52-1.1-83,1.01,8.69,59.98,71.49,91.09,126.99,93-.08-9.32.15-18.69,0-28.01-.04-2.99.05-6.01,0-9-.07-4.12-.98-7.88-1.04-11.46-.28-15.5.29-31.05.05-46.55-11.98.17-24.03-.21-36.01,0-2.19.24-5.58-.9-7,1Z"/>
        <path class="cls-2" d="M135,412c11.98-.22,24.02.17,36.01,0,.24,15.49-.33,31.05-.05,46.55.06,3.58.97,7.34,1.04,11.46-.84,2.92-.88,6.08,0,9,.14,9.32-.09,18.69,0,28.01-55.5-1.91-118.3-33.02-126.99-93,27.48-2.11,55.38-.61,83-1.01,2.26-.69,4.59-1.02,7-1Z"/>
        <path class="cls-2" d="M198.74,385.24c29.44-4.95,28.95,41.69-1.01,35.53-18.57-3.82-16.82-32.53,1.01-35.53Z"/>
        <path class="cls-1" d="M700,368v4c-53.47,37.68-124.22-5.9-152.17-55.33-16.64-29.43-25.44-72.93-1.8-101.14,1.32-1.58,5.94-7.12,7.96-6.09l146.01,158.56Z"/>
      </g>
    </g>
  </g>
</svg>